# ProBuilder 5.0.6
# https://unity3d.com/unity/features/worldbuilding/probuilder
# 09.04.2023 17:58:53

mtllib ./Cylinder_(1).mtl
o Cylinder (1)

g Cylinder (1)
v -5.960464E-08 0.6080089 1.001472
v -5.960464E-08 0.6080089 -0.9985285
v -0.2793072 0.7237017 1.001472
v -0.2793072 0.7237017 -0.9985285
v -0.3950001 1.003009 1.001472
v -0.3950001 1.003009 -0.9985285
v -0.2793072 1.282316 1.001472
v -0.2793072 1.282316 -0.9985285
v -2.980232E-08 1.398009 1.001472
v -2.980232E-08 1.398009 -0.9985285
v 0.2793071 1.282316 1.001472
v 0.2793071 1.282316 -0.9985285
v 0.395 1.003009 1.001472
v 0.395 1.003009 -0.9985285
v 0.2793071 0.7237017 1.001472
v 0.2793071 0.7237017 -0.9985285
v -5.960464E-08 1.003009 1.001472
v -5.960464E-08 1.003009 -0.9985285

vt -0.4217546 -0.3344715
vt -0.4217546 1.665529
vt -0.1194347 -0.3344715
vt -0.1194347 1.665529
vt 0.1194463 -0.3344715
vt 0.1194463 1.665529
vt 0.4217662 -0.3344715
vt 0.4217662 1.665529
vt 0.5021297 -0.3344715
vt 0.5021297 1.665529
vt 0.8044496 -0.3344715
vt 0.8044496 1.665529
vt -0.8044497 -0.3344715
vt -0.8044497 1.665529
vt -0.5021298 -0.3344715
vt -0.5021298 1.665529
vt 0.1050088 -0.4999999
vt 0.5000088 -0.4999999
vt 0.2207016 -0.2206928
vt -0.1050088 -0.4999999
vt -0.5000088 -0.4999999
vt -0.2207016 -0.2206928
vt 0.5000088 -0.1049999
vt -0.5000088 -0.1049999
vt 0.779316 -0.2206928
vt -0.779316 -0.2206928
vt 0.8950088 -0.5
vt -0.8950088 -0.5
vt 0.7793161 -0.7793071
vt -0.7793161 -0.7793071
vt 0.5000088 -0.895
vt -0.5000088 -0.895
vt 0.2207017 -0.7793071
vt -0.2207017 -0.7793071

vn 9.677341E-08 -1 0
vn -0.7071068 -0.7071068 0
vn -1 0 0
vn -0.7071068 0.7071068 0
vn -4.83867E-08 1 0
vn 0.7071067 0.7071069 0
vn 1 -6.45156E-08 0
vn 0.7071068 -0.7071068 0
vn 0 0 1
vn 0 0 -1

usemtl ProBuilderDefault
f 1/17/9 17/18/9 3/19/9
f 3/19/9 17/18/9 5/23/9
f 5/23/9 17/18/9 7/25/9
f 7/25/9 17/18/9 9/27/9
f 9/27/9 17/18/9 11/29/9
f 11/29/9 17/18/9 13/31/9
f 13/31/9 17/18/9 15/33/9
f 15/33/9 17/18/9 1/17/9
f 4/22/10 18/21/10 2/20/10
f 6/24/10 18/21/10 4/22/10
f 8/26/10 18/21/10 6/24/10
f 10/28/10 18/21/10 8/26/10
f 12/30/10 18/21/10 10/28/10
f 14/32/10 18/21/10 12/30/10
f 16/34/10 18/21/10 14/32/10
f 2/20/10 18/21/10 16/34/10
f 4/4/2 2/2/1 1/1/1
f 1/1/1 3/3/2 4/4/2
f 6/8/3 4/6/2 3/5/2
f 3/5/2 5/7/3 6/8/3
f 8/12/4 6/10/3 5/9/3
f 5/9/3 7/11/4 8/12/4
f 10/12/5 8/10/4 7/9/4
f 7/9/4 9/11/5 10/12/5
f 12/8/6 10/6/5 9/5/5
f 9/5/5 11/7/6 12/8/6
f 14/4/7 12/2/6 11/1/6
f 11/1/6 13/3/7 14/4/7
f 16/16/8 14/14/7 13/13/7
f 13/13/7 15/15/8 16/16/8
f 2/16/1 16/14/8 15/13/8
f 15/13/8 1/15/1 2/16/1

g Cylinder
v 1.010471 0.6080089 -0.003999949
v -0.9895288 0.6080086 -0.003999949
v 1.010471 0.7237017 0.2753072
v -0.9895288 0.7237015 0.2753072
v 1.010471 1.003009 0.3910001
v -0.9895288 1.003009 0.3910001
v 1.010471 1.282316 0.2753072
v -0.9895288 1.282316 0.2753072
v 1.010471 1.398009 -0.003999978
v -0.9895288 1.398009 -0.003999978
v 1.010471 1.282316 -0.2833071
v -0.9895288 1.282316 -0.2833071
v 1.010471 1.003009 -0.399
v -0.9895288 1.003009 -0.399
v 1.010471 0.7237018 -0.2833071
v -0.9895288 0.7237015 -0.2833071
v 1.010471 1.003009 -0.003999949
v -0.9895288 1.003009 -0.003999949

vt -0.4217546 -0.3344715
vt -0.4217546 1.665529
vt -0.1194347 -0.3344715
vt -0.1194347 1.665529
vt 0.1194463 -0.3344715
vt 0.1194463 1.665529
vt 0.4217662 -0.3344715
vt 0.4217662 1.665529
vt 0.5021297 -0.3344715
vt 0.5021297 1.665529
vt 0.8044496 -0.3344715
vt 0.8044496 1.665529
vt -0.8044497 -0.3344715
vt -0.8044497 1.665529
vt -0.5021298 -0.3344715
vt -0.5021298 1.665529
vt 0.1050088 -0.4999999
vt 0.5000088 -0.4999999
vt 0.2207016 -0.2206928
vt -0.1050088 -0.4999999
vt -0.5000088 -0.4999999
vt -0.2207016 -0.2206928
vt 0.5000088 -0.1049999
vt -0.5000088 -0.1049999
vt 0.779316 -0.2206928
vt -0.779316 -0.2206928
vt 0.8950088 -0.5
vt -0.8950088 -0.5
vt 0.7793161 -0.7793071
vt -0.7793161 -0.7793071
vt 0.5000088 -0.895
vt -0.5000088 -0.895
vt 0.2207017 -0.7793071
vt -0.2207017 -0.7793071

vn 1.192093E-07 -1 -9.677341E-08
vn 8.42937E-08 -0.7071068 0.7071068
vn 0 0 1
vn -8.42937E-08 0.7071069 0.7071068
vn -1.192093E-07 1 4.83867E-08
vn -8.429371E-08 0.7071069 -0.7071067
vn 7.690859E-15 -6.451561E-08 -1
vn 8.42937E-08 -0.7071068 -0.7071068
vn 1 1.192093E-07 0
vn -1 -1.192093E-07 0

usemtl ProBuilderDefault
f 19/51/19 35/52/19 21/53/19
f 21/53/19 35/52/19 23/57/19
f 23/57/19 35/52/19 25/59/19
f 25/59/19 35/52/19 27/61/19
f 27/61/19 35/52/19 29/63/19
f 29/63/19 35/52/19 31/65/19
f 31/65/19 35/52/19 33/67/19
f 33/67/19 35/52/19 19/51/19
f 22/56/20 36/55/20 20/54/20
f 24/58/20 36/55/20 22/56/20
f 26/60/20 36/55/20 24/58/20
f 28/62/20 36/55/20 26/60/20
f 30/64/20 36/55/20 28/62/20
f 32/66/20 36/55/20 30/64/20
f 34/68/20 36/55/20 32/66/20
f 20/54/20 36/55/20 34/68/20
f 22/38/12 20/36/11 19/35/11
f 19/35/11 21/37/12 22/38/12
f 24/42/13 22/40/12 21/39/12
f 21/39/12 23/41/13 24/42/13
f 26/46/14 24/44/13 23/43/13
f 23/43/13 25/45/14 26/46/14
f 28/46/15 26/44/14 25/43/14
f 25/43/14 27/45/15 28/46/15
f 30/42/16 28/40/15 27/39/15
f 27/39/15 29/41/16 30/42/16
f 32/38/17 30/36/16 29/35/16
f 29/35/16 31/37/17 32/38/17
f 34/50/18 32/48/17 31/47/17
f 31/47/17 33/49/18 34/50/18
f 20/50/11 34/48/18 33/47/18
f 33/47/18 19/49/11 20/50/11

g Cylinder
v 1.010471 0.6080089 -0.003999949
v -0.9895288 0.6080086 -0.003999949
v 1.010471 0.7237017 0.2753072
v -0.9895288 0.7237015 0.2753072
v 1.010471 1.003009 0.3910001
v -0.9895288 1.003009 0.3910001
v 1.010471 1.282316 0.2753072
v -0.9895288 1.282316 0.2753072
v 1.010471 1.398009 -0.003999978
v -0.9895288 1.398009 -0.003999978
v 1.010471 1.282316 -0.2833071
v -0.9895288 1.282316 -0.2833071
v 1.010471 1.003009 -0.399
v -0.9895288 1.003009 -0.399
v 1.010471 0.7237018 -0.2833071
v -0.9895288 0.7237015 -0.2833071
v 1.010471 1.003009 -0.003999949
v -0.9895288 1.003009 -0.003999949

vt -0.4217546 -0.3344715
vt -0.4217546 1.665529
vt -0.1194347 -0.3344715
vt -0.1194347 1.665529
vt 0.1194463 -0.3344715
vt 0.1194463 1.665529
vt 0.4217662 -0.3344715
vt 0.4217662 1.665529
vt 0.5021297 -0.3344715
vt 0.5021297 1.665529
vt 0.8044496 -0.3344715
vt 0.8044496 1.665529
vt -0.8044497 -0.3344715
vt -0.8044497 1.665529
vt -0.5021298 -0.3344715
vt -0.5021298 1.665529
vt 0.1050088 -0.4999999
vt 0.5000088 -0.4999999
vt 0.2207016 -0.2206928
vt -0.1050088 -0.4999999
vt -0.5000088 -0.4999999
vt -0.2207016 -0.2206928
vt 0.5000088 -0.1049999
vt -0.5000088 -0.1049999
vt 0.779316 -0.2206928
vt -0.779316 -0.2206928
vt 0.8950088 -0.5
vt -0.8950088 -0.5
vt 0.7793161 -0.7793071
vt -0.7793161 -0.7793071
vt 0.5000088 -0.895
vt -0.5000088 -0.895
vt 0.2207017 -0.7793071
vt -0.2207017 -0.7793071

vn 1.192093E-07 -1 -9.677341E-08
vn 8.42937E-08 -0.7071068 0.7071068
vn 0 0 1
vn -8.42937E-08 0.7071069 0.7071068
vn -1.192093E-07 1 4.83867E-08
vn -8.429371E-08 0.7071069 -0.7071067
vn 7.690859E-15 -6.451561E-08 -1
vn 8.42937E-08 -0.7071068 -0.7071068
vn 1 1.192093E-07 0
vn -1 -1.192093E-07 0

usemtl ProBuilderDefault
f 37/85/29 53/86/29 39/87/29
f 39/87/29 53/86/29 41/91/29
f 41/91/29 53/86/29 43/93/29
f 43/93/29 53/86/29 45/95/29
f 45/95/29 53/86/29 47/97/29
f 47/97/29 53/86/29 49/99/29
f 49/99/29 53/86/29 51/101/29
f 51/101/29 53/86/29 37/85/29
f 40/90/30 54/89/30 38/88/30
f 42/92/30 54/89/30 40/90/30
f 44/94/30 54/89/30 42/92/30
f 46/96/30 54/89/30 44/94/30
f 48/98/30 54/89/30 46/96/30
f 50/100/30 54/89/30 48/98/30
f 52/102/30 54/89/30 50/100/30
f 38/88/30 54/89/30 52/102/30
f 40/72/22 38/70/21 37/69/21
f 37/69/21 39/71/22 40/72/22
f 42/76/23 40/74/22 39/73/22
f 39/73/22 41/75/23 42/76/23
f 44/80/24 42/78/23 41/77/23
f 41/77/23 43/79/24 44/80/24
f 46/80/25 44/78/24 43/77/24
f 43/77/24 45/79/25 46/80/25
f 48/76/26 46/74/25 45/73/25
f 45/73/25 47/75/26 48/76/26
f 50/72/27 48/70/26 47/69/26
f 47/69/26 49/71/27 50/72/27
f 52/84/28 50/82/27 49/81/27
f 49/81/27 51/83/28 52/84/28
f 38/84/21 52/82/28 51/81/28
f 51/81/28 37/83/21 38/84/21

g Cylinder (1)
v -5.960464E-08 0.6080089 1.001472
v -5.960464E-08 0.6080089 -0.9985285
v -0.2793072 0.7237017 1.001472
v -0.2793072 0.7237017 -0.9985285
v -0.3950001 1.003009 1.001472
v -0.3950001 1.003009 -0.9985285
v -0.2793072 1.282316 1.001472
v -0.2793072 1.282316 -0.9985285
v -2.980232E-08 1.398009 1.001472
v -2.980232E-08 1.398009 -0.9985285
v 0.2793071 1.282316 1.001472
v 0.2793071 1.282316 -0.9985285
v 0.395 1.003009 1.001472
v 0.395 1.003009 -0.9985285
v 0.2793071 0.7237017 1.001472
v 0.2793071 0.7237017 -0.9985285
v -5.960464E-08 1.003009 1.001472
v -5.960464E-08 1.003009 -0.9985285

vt -0.4217546 -0.3344715
vt -0.4217546 1.665529
vt -0.1194347 -0.3344715
vt -0.1194347 1.665529
vt 0.1194463 -0.3344715
vt 0.1194463 1.665529
vt 0.4217662 -0.3344715
vt 0.4217662 1.665529
vt 0.5021297 -0.3344715
vt 0.5021297 1.665529
vt 0.8044496 -0.3344715
vt 0.8044496 1.665529
vt -0.8044497 -0.3344715
vt -0.8044497 1.665529
vt -0.5021298 -0.3344715
vt -0.5021298 1.665529
vt 0.1050088 -0.4999999
vt 0.5000088 -0.4999999
vt 0.2207016 -0.2206928
vt -0.1050088 -0.4999999
vt -0.5000088 -0.4999999
vt -0.2207016 -0.2206928
vt 0.5000088 -0.1049999
vt -0.5000088 -0.1049999
vt 0.779316 -0.2206928
vt -0.779316 -0.2206928
vt 0.8950088 -0.5
vt -0.8950088 -0.5
vt 0.7793161 -0.7793071
vt -0.7793161 -0.7793071
vt 0.5000088 -0.895
vt -0.5000088 -0.895
vt 0.2207017 -0.7793071
vt -0.2207017 -0.7793071

vn 9.677341E-08 -1 0
vn -0.7071068 -0.7071068 0
vn -1 0 0
vn -0.7071068 0.7071068 0
vn -4.83867E-08 1 0
vn 0.7071067 0.7071069 0
vn 1 -6.45156E-08 0
vn 0.7071068 -0.7071068 0
vn 0 0 1
vn 0 0 -1

usemtl ProBuilderDefault
f 55/119/39 71/120/39 57/121/39
f 57/121/39 71/120/39 59/125/39
f 59/125/39 71/120/39 61/127/39
f 61/127/39 71/120/39 63/129/39
f 63/129/39 71/120/39 65/131/39
f 65/131/39 71/120/39 67/133/39
f 67/133/39 71/120/39 69/135/39
f 69/135/39 71/120/39 55/119/39
f 58/124/40 72/123/40 56/122/40
f 60/126/40 72/123/40 58/124/40
f 62/128/40 72/123/40 60/126/40
f 64/130/40 72/123/40 62/128/40
f 66/132/40 72/123/40 64/130/40
f 68/134/40 72/123/40 66/132/40
f 70/136/40 72/123/40 68/134/40
f 56/122/40 72/123/40 70/136/40
f 58/106/32 56/104/31 55/103/31
f 55/103/31 57/105/32 58/106/32
f 60/110/33 58/108/32 57/107/32
f 57/107/32 59/109/33 60/110/33
f 62/114/34 60/112/33 59/111/33
f 59/111/33 61/113/34 62/114/34
f 64/114/35 62/112/34 61/111/34
f 61/111/34 63/113/35 64/114/35
f 66/110/36 64/108/35 63/107/35
f 63/107/35 65/109/36 66/110/36
f 68/106/37 66/104/36 65/103/36
f 65/103/36 67/105/37 68/106/37
f 70/118/38 68/116/37 67/115/37
f 67/115/37 69/117/38 70/118/38
f 56/118/31 70/116/38 69/115/38
f 69/115/38 55/117/31 56/118/31

